<svg version="1.1" id="Layer_1" xmlns="http://www.w3.org/2000/svg" xmlns:xlink="http://www.w3.org/1999/xlink" x="0px" y="0px"
	 width="100%" viewBox="0 0 993 993" enable-background="new 0 0 993 993" xml:space="preserve">
<path fill="#FFFFFF" opacity="1.000000" stroke="none" 
	d="
M665.000000,994.000000 
	C443.333344,994.000000 222.166672,994.000000 1.000000,994.000000 
	C1.000000,663.000000 1.000000,332.000000 1.000000,1.000000 
	C332.000000,1.000000 663.000000,1.000000 994.000000,1.000000 
	C994.000000,332.000000 994.000000,663.000000 994.000000,994.000000 
	C884.500000,994.000000 775.000000,994.000000 665.000000,994.000000 
M702.441956,808.956970 
	C702.617737,818.633545 702.793518,828.310120 702.827759,838.607361 
	C703.433411,839.560974 704.004272,841.312805 704.650208,841.340942 
	C709.460327,841.550293 714.299622,841.604553 719.093201,841.234070 
	C720.040771,841.160828 721.583069,839.039185 721.578491,837.867188 
	C721.519836,822.911987 721.229065,807.957764 721.059937,792.175537 
	C720.091370,783.928894 717.596985,776.444885 709.800171,772.137024 
	C698.340088,765.805298 688.274841,770.320007 677.958374,777.471741 
	C677.192505,770.298523 672.253784,771.735535 668.039612,771.648315 
	C666.541626,771.617310 665.032104,771.751343 663.546143,771.613098 
	C660.179749,771.299805 659.368591,772.852051 659.424744,776.034485 
	C659.733032,793.510132 659.891846,810.988953 659.997131,828.467346 
	C660.076782,841.692932 660.012085,841.443237 673.048401,841.716125 
	C678.340149,841.826843 679.531921,839.817993 679.421082,835.016418 
	C679.148254,823.200134 679.654297,811.359253 679.160217,799.557068 
	C678.870239,792.629700 682.016357,789.591248 687.672119,787.057800 
	C692.770508,784.774048 697.061340,786.754944 700.662659,791.720154 
	C701.401672,793.335632 702.140625,794.951050 702.348938,796.897034 
	C702.529358,797.421204 702.709778,797.945312 702.399414,799.231689 
	C702.453857,802.182800 702.508301,805.133911 702.441956,808.956970 
M318.771393,841.414734 
	C322.597900,841.469543 326.434937,841.367188 330.248077,841.622131 
	C334.278870,841.891663 335.369049,840.065674 335.236481,836.302795 
	C334.873169,825.990967 334.832977,815.668152 334.569824,805.352173 
	C334.434174,800.034485 334.613983,794.636780 333.756042,789.422485 
	C330.795502,771.429749 315.624329,764.114258 299.455292,772.634338 
	C296.843079,774.010742 294.329590,775.574646 291.791504,777.039734 
	C288.078064,771.320862 281.803101,769.901001 273.120728,772.765747 
	C273.120728,774.276489 273.110687,775.923767 273.122253,777.570862 
	C273.240570,794.384033 273.358673,811.197205 273.484344,828.010376 
	C273.591309,842.319153 273.592041,842.229492 288.150360,841.644653 
	C291.767975,841.499390 293.025757,840.251648 292.972412,836.574951 
	C292.784088,823.592651 292.797882,810.604553 292.985229,797.622375 
	C293.015808,795.505249 293.745667,792.891174 295.116882,791.385010 
	C302.425354,783.357239 313.001190,784.722717 315.501434,796.895508 
	C315.713593,809.904846 315.925751,822.914185 316.013397,836.738831 
	C316.051270,837.835083 316.089142,838.931396 316.280090,840.640991 
	C316.848297,840.826660 317.416534,841.012329 318.771393,841.414734 
M601.048889,394.392334 
	C601.225281,393.618134 601.401672,392.843933 601.794495,391.526245 
	C601.800964,391.331360 601.807434,391.136475 601.993896,390.171051 
	C606.591370,368.332336 607.926880,346.252045 607.682922,323.471832 
	C601.916016,324.063263 596.976685,324.569824 591.265686,324.972382 
	C590.496521,325.063599 589.727417,325.154816 588.076050,325.223969 
	C585.922546,325.417358 583.772278,325.660675 581.615112,325.796814 
	C533.389954,328.840546 485.196838,328.767761 436.368347,324.096039 
	C435.899780,324.104034 435.431183,324.112061 434.155670,323.989136 
	C429.314789,323.405182 424.473907,322.821198 418.484283,322.098663 
	C419.028900,336.252930 419.542969,349.613068 419.971405,363.655487 
	C420.022461,364.109467 420.073547,364.563416 420.069794,365.860138 
	C420.404999,368.561432 420.740234,371.262756 420.990356,374.841888 
	C422.956665,392.716431 425.858276,410.348053 434.191315,427.551453 
	C435.196228,425.687500 435.796600,424.752960 436.228363,423.746124 
	C442.967438,408.031677 454.493591,396.960815 469.573090,389.339417 
	C482.236908,382.938873 495.241180,381.829193 508.763519,386.507263 
	C510.741272,387.191437 513.218506,386.699341 515.421143,386.414886 
	C521.647766,385.610840 527.997375,383.296509 534.039062,383.955597 
	C558.649414,386.640411 576.087830,399.993225 587.023132,422.048401 
	C587.770264,423.555420 588.466614,425.087616 589.601074,427.483429 
	C595.528564,416.529663 598.579773,405.879547 601.048889,394.392334 
M564.780151,155.993454 
	C582.466064,163.320740 600.164978,170.617004 617.824890,178.006424 
	C620.707031,179.212387 623.815186,179.887085 625.195190,176.782196 
	C625.855774,175.295959 624.497620,172.008682 623.030029,170.615616 
	C600.315063,149.053925 577.544617,127.547058 554.511597,106.326431 
	C548.420471,100.714569 541.709167,95.626587 534.724609,91.173126 
	C526.805603,86.123810 520.861328,87.185158 514.892883,94.419540 
	C509.403412,101.073402 503.935822,107.936401 499.718781,115.417625 
	C474.747589,159.717453 453.529846,205.873169 433.152985,252.414673 
	C431.378204,256.468384 429.139465,258.014893 425.022644,258.996124 
	C409.983887,262.580627 394.960632,266.321259 380.156616,270.754791 
	C374.205658,272.537018 368.517120,275.778992 363.287903,279.232819 
	C357.389679,283.128510 357.580078,288.821228 363.621704,292.456299 
	C368.131775,295.169861 373.118225,297.623413 378.210876,298.737305 
	C393.477783,302.076630 408.794067,305.683136 424.288696,307.370026 
	C446.105835,309.745239 468.100372,310.490814 490.948730,312.042358 
	C508.285950,312.000519 525.623169,311.958649 543.895447,312.035248 
	C552.716736,311.702301 561.549011,311.547211 570.357178,311.002197 
	C594.320618,309.519409 618.226196,307.347931 641.520569,301.195343 
	C648.378601,299.383942 655.179688,296.772675 661.443542,293.462067 
	C667.579895,290.218719 667.777039,284.603790 662.476196,280.048981 
	C659.606812,277.583435 656.252075,275.560455 652.858887,273.847687 
	C636.302185,265.490204 618.220459,262.175934 600.357483,258.101685 
	C598.520264,257.682648 596.129822,255.900574 595.570984,254.225540 
	C584.714600,221.684464 574.092834,189.065140 563.731079,156.208191 
	C563.731079,156.208191 564.034790,155.949127 564.780151,155.993454 
M565.663818,695.015076 
	C566.110718,694.961304 566.557617,694.907532 567.867188,694.895081 
	C581.908142,692.591064 595.949158,690.286987 610.782043,687.945129 
	C612.082703,687.655518 613.438477,687.513977 614.675232,687.052979 
	C624.782043,683.285583 634.972656,679.711243 644.911194,675.538330 
	C649.558105,673.587280 651.226440,669.961792 650.254578,664.219604 
	C647.477783,647.812378 645.394226,631.276672 643.465515,614.741638 
	C642.497986,606.447815 642.460205,598.045532 642.002014,589.692261 
	C642.588440,589.588562 643.174927,589.484924 643.761353,589.381226 
	C647.384583,602.528015 651.007812,615.674805 654.676331,628.985962 
	C655.614380,628.729675 656.431152,628.590820 657.178894,628.283936 
	C658.563354,627.715881 659.948181,627.124634 661.262024,626.412292 
	C672.951355,620.074524 680.497253,610.257812 685.167786,597.990662 
	C693.484253,576.147461 692.369568,553.854736 688.161987,531.493896 
	C680.927612,493.047668 663.694763,460.139252 633.144287,435.048950 
	C625.973755,429.160004 617.755554,424.546783 609.462036,418.972015 
	C608.246704,424.778534 607.532837,429.049164 606.450806,433.224365 
	C596.734619,470.716644 575.633179,500.826385 545.978577,525.125916 
	C530.591736,537.734070 514.262878,548.989380 494.563568,554.076416 
	C492.731812,554.549500 490.830353,554.752808 489.239288,555.032471 
	C488.771912,554.315186 488.614197,554.182800 488.605652,554.041382 
	C488.565765,553.381104 488.480499,552.706726 488.566406,552.057983 
	C490.262421,539.249207 485.626129,528.972290 476.307068,520.356140 
	C469.338348,513.913086 462.548431,507.267426 455.861755,500.530457 
	C437.456390,481.986755 425.066650,460.088226 419.549591,434.451935 
	C418.538422,429.753204 417.784515,424.999146 416.799561,419.662292 
	C386.740417,436.434845 360.037659,458.429047 326.362030,469.365265 
	C328.227722,471.817230 330.543213,473.396973 332.613739,475.250366 
	C342.370911,483.984558 347.134216,495.187897 345.172974,507.926208 
	C343.392059,519.493225 339.538605,530.750366 336.425964,542.096619 
	C335.653900,544.910889 334.212921,547.541565 332.785797,550.959900 
	C335.002289,550.689087 336.520294,550.751099 337.864807,550.298218 
	C345.254639,547.809265 352.969269,545.925415 359.879395,542.454224 
	C370.718811,537.009216 381.005402,530.463806 391.901733,524.822449 
	C392.028473,524.967041 392.155182,525.111694 392.228760,526.060425 
	C383.845917,571.646790 375.437378,617.228516 367.103302,662.823792 
	C365.548615,671.329468 365.752869,673.210754 373.812378,676.413696 
	C386.246948,681.355347 399.253082,684.858826 412.737396,689.196716 
	C421.487793,690.716248 430.238159,692.235779 439.503113,693.887207 
	C439.680054,693.881714 439.857025,693.876160 440.836090,694.031738 
	C455.273438,695.137024 469.713623,697.187317 484.147491,697.143494 
	C511.096375,697.061768 538.041565,695.763794 565.663818,695.015076 
M232.466019,357.043976 
	C241.593658,364.750946 252.101990,369.556641 263.828522,371.577698 
	C266.938538,372.113678 268.250702,373.425232 268.826599,376.547058 
	C274.836456,409.125122 280.962189,441.682068 287.174866,474.222137 
	C287.641144,476.664307 287.439941,478.073517 285.181488,479.522949 
	C274.444977,486.413635 269.791199,496.391937 271.627594,508.976166 
	C273.569336,522.282166 281.612732,530.454773 294.496704,533.722778 
	C297.301605,534.434326 298.258270,535.748047 298.677521,538.334412 
	C300.090271,547.049255 301.676819,555.735779 303.170990,564.437622 
	C305.087067,575.596985 306.889252,586.776794 308.917236,597.915588 
	C309.929962,603.478271 314.059998,606.559998 319.150940,606.015076 
	C324.191254,605.475586 327.504700,601.421692 327.286133,595.839783 
	C327.201813,593.686401 326.855682,591.530273 326.472412,589.403564 
	C323.195709,571.220337 319.811768,553.055725 316.700623,534.844482 
	C316.415924,533.178223 317.244873,530.464294 318.511475,529.526855 
	C328.030640,522.481445 331.752655,513.058167 330.429596,501.580322 
	C329.081543,489.885620 322.444641,481.861237 311.636383,477.813019 
	C307.324341,476.197937 305.897461,473.759369 305.181671,469.689331 
	C301.661407,449.673035 297.945312,429.691193 294.304382,409.696075 
	C291.987335,396.971405 289.680725,384.244873 287.335297,371.331360 
	C289.428925,370.612854 291.126312,369.992401 292.847015,369.445496 
	C319.733246,360.900299 336.861694,338.752441 337.360168,310.649933 
	C337.820007,284.725891 327.117493,264.412903 304.352509,251.386871 
	C283.419495,239.409058 261.931854,240.141052 241.594055,252.294434 
	C204.424454,274.506104 198.347214,325.917114 232.466019,357.043976 
M513.725647,806.844482 
	C515.071167,810.429993 516.398804,814.022278 517.765564,817.599670 
	C522.230896,829.287964 519.123779,826.614197 531.626343,827.134888 
	C535.002380,827.275452 536.662476,826.176086 537.863892,822.984680 
	C542.496277,810.679810 547.405457,798.479004 552.240723,786.251038 
	C552.723267,785.030762 553.405212,783.889404 553.994568,782.711426 
	C554.928345,784.834656 555.092163,786.644897 555.174316,788.458740 
	C555.898315,804.432373 556.533325,820.410706 557.427612,836.374695 
	C557.525269,838.117371 558.970520,841.157166 559.995789,841.246704 
	C565.546082,841.731262 571.161011,841.476379 577.399231,841.476379 
	C576.934448,835.207336 576.508362,829.766357 576.131348,824.321899 
	C574.394775,799.244995 572.614807,774.170837 571.008972,749.085510 
	C570.782349,745.546143 569.301270,744.544006 566.036987,744.709351 
	C562.215698,744.902832 558.359375,744.977295 554.550903,744.681946 
	C551.137756,744.417358 549.577942,745.690125 548.418518,748.910889 
	C542.838135,764.413086 536.992065,779.819763 531.221619,795.253357 
	C530.692383,796.668823 530.030212,798.034607 528.972839,800.480225 
	C527.913635,797.677490 527.310425,796.159180 526.763123,794.621033 
	C522.354065,782.227905 518.071289,769.788269 513.521667,757.447021 
	C508.827362,744.713562 508.715118,744.754944 495.324280,744.751404 
	C487.608429,744.749390 487.590118,744.748169 487.057281,752.725891 
	C485.725586,772.663391 484.404419,792.601624 483.094757,812.540588 
	C482.476257,821.956787 481.893890,831.375427 481.268860,841.207275 
	C487.688721,841.207275 493.601074,841.207275 500.031189,841.207275 
	C501.163147,821.260742 502.280029,801.579834 503.396942,781.898926 
	C503.648163,781.831421 503.899414,781.763916 504.150635,781.696411 
	C507.235535,789.842957 510.320404,797.989441 513.725647,806.844482 
M143.026596,789.427917 
	C141.693222,792.968201 140.359863,796.508423 138.546478,801.323181 
	C137.374115,798.292786 136.660721,796.517029 135.997147,794.722839 
	C130.337418,779.419189 124.744644,764.090149 118.946472,748.839172 
	C118.347610,747.263977 116.615326,745.093933 115.282440,745.000183 
	C109.337448,744.582458 103.346512,744.818726 96.909142,744.818726 
	C94.606071,777.067932 92.332893,808.898499 90.000229,841.562073 
	C95.113693,841.562073 99.736877,841.359192 104.333076,841.624207 
	C108.248314,841.849976 109.533325,840.286194 109.696220,836.480164 
	C110.394279,820.169495 111.331535,803.868958 112.191559,787.565308 
	C112.277489,785.936340 112.430901,784.310974 112.552986,782.683899 
	C118.058220,794.349609 122.541512,805.968201 127.036301,817.582214 
	C130.741348,827.155701 130.750198,826.992371 140.901062,827.171265 
	C144.441864,827.233643 146.192963,826.144897 147.462204,822.787292 
	C152.112778,810.484375 157.073639,798.298645 161.945770,786.079956 
	C162.383499,784.982178 163.023376,783.964966 164.238113,781.618530 
	C164.527496,784.529175 164.742218,785.961182 164.801804,787.399597 
	C165.484421,803.878296 166.143311,820.357849 166.808823,836.837219 
	C166.895691,838.988159 166.579407,841.455200 169.834961,841.482971 
	C175.118408,841.527954 180.402527,841.495056 185.864441,841.495056 
	C185.994034,839.978516 186.204117,839.008728 186.139725,838.057495 
	C184.114655,808.149658 182.035919,778.245483 180.058121,748.334595 
	C179.866364,745.434631 178.459747,744.690491 175.897736,744.739502 
	C171.900543,744.816101 167.893158,744.878723 163.903824,744.676270 
	C160.922852,744.524963 159.508469,745.729614 158.481461,748.516663 
	C153.530396,761.952209 148.361984,775.307617 143.026596,789.427917 
M474.986908,782.509888 
	C476.243591,778.814026 477.500275,775.118164 478.950348,770.853638 
	C472.543365,770.853638 466.883698,770.624939 461.267609,771.018250 
	C459.903687,771.113831 457.992981,773.033813 457.518707,774.498596 
	C455.674561,780.194641 454.338867,786.053772 452.755219,791.836121 
	C450.456329,800.230103 448.106598,808.610168 445.380646,818.429321 
	C444.538727,816.045349 444.179871,815.170349 443.918274,814.267151 
	C440.213867,801.475830 436.560974,788.669434 432.774384,775.902588 
	C432.352814,774.481262 431.245667,772.197937 430.359375,772.151062 
	C424.147675,771.822754 417.910461,771.977112 411.200928,771.977112 
	C411.729462,773.989746 411.946503,775.118286 412.319702,776.192566 
	C419.260254,796.169678 426.178101,816.154846 433.191925,836.106262 
	C436.705475,846.100952 431.169403,853.580872 420.441315,853.126282 
	C418.654083,853.050537 416.867584,852.958191 414.522522,852.847046 
	C414.143188,857.595642 413.657959,862.029236 413.550537,866.471985 
	C413.530334,867.307739 414.863556,868.642639 415.832001,868.963806 
	C425.650970,872.219421 438.758087,868.404724 445.119232,859.875671 
	C448.358887,855.531860 451.145447,850.595032 452.989471,845.510132 
	C460.482788,824.847351 467.531799,804.023499 474.986908,782.509888 
M258.403320,787.226929 
	C252.419739,774.542480 238.788696,767.415894 224.168945,769.328613 
	C207.804947,771.469421 198.542236,779.639465 196.365570,795.198608 
	C195.364182,802.356934 195.341873,809.859192 196.241425,817.034302 
	C198.252045,833.071594 208.377396,842.088013 224.567017,843.452515 
	C241.684006,844.895264 255.022583,836.803772 259.653412,821.746460 
	C263.129181,810.444763 262.633972,799.101990 258.403320,787.226929 
M622.132385,787.183716 
	C622.997009,788.180725 624.091980,789.057312 624.686768,790.195312 
	C627.452271,795.486694 626.127075,797.605042 620.234131,797.954895 
	C616.256897,798.190979 612.209839,798.356506 608.349365,799.235962 
	C598.518677,801.475342 589.910950,805.624268 587.339722,816.597107 
	C583.343445,833.651733 596.768311,846.927002 613.914734,842.762146 
	C618.845337,841.564392 623.501404,839.236755 628.291931,837.423950 
	C630.508911,840.540344 641.876587,842.863708 644.870056,840.600891 
	C645.598938,840.050049 645.954651,838.595459 645.957092,837.555176 
	C645.991272,823.248108 646.272461,808.929626 645.797913,794.636963 
	C645.368530,781.703857 638.802490,773.408813 627.255920,770.394653 
	C615.361633,767.289917 603.814819,769.596130 592.546997,773.657532 
	C591.507935,774.032043 590.184814,775.837280 590.302917,776.820984 
	C590.826599,781.181702 591.828186,785.484985 592.708130,790.076660 
	C596.451660,788.908752 599.405029,787.815918 602.444092,787.074951 
	C608.740051,785.539856 615.074768,783.726013 622.132385,787.183716 
M375.847748,843.469788 
	C384.173828,842.115540 392.515411,840.844910 400.807007,839.304932 
	C401.884888,839.104736 403.573517,837.440186 403.497803,836.585144 
	C403.126221,832.390076 402.253662,828.239380 401.614441,824.410461 
	C393.341888,825.301514 385.947571,826.620300 378.531067,826.760071 
	C369.924927,826.922302 364.651093,821.356140 364.557617,812.829224 
	C366.623993,812.663574 368.726166,812.360352 370.829834,812.349304 
	C381.482880,812.293091 392.137177,812.237061 402.789185,812.352112 
	C405.971313,812.386475 407.413361,811.312195 407.119598,808.032593 
	C406.704834,803.402283 406.798492,798.695618 406.015259,794.134888 
	C403.492035,779.441589 394.642914,770.864563 380.760437,769.192017 
	C366.588226,767.484497 353.764374,774.909363 348.153412,788.018921 
	C344.921692,795.569580 344.499176,803.476257 344.918732,811.530090 
	C345.882599,830.030151 356.588257,841.424133 375.847748,843.469788 
M854.070129,806.311523 
	C854.040833,803.978821 854.162415,801.632690 853.956543,799.315674 
	C852.956665,788.062195 849.728699,777.896240 838.866882,772.247925 
	C822.373596,763.671143 801.409729,771.830688 795.126099,789.293884 
	C791.033936,800.666565 791.169556,812.246948 795.249695,823.587891 
	C799.120850,834.348267 806.931091,840.756775 818.261902,842.738403 
	C828.580872,844.543091 838.514160,842.780823 848.194092,839.256775 
	C849.262939,838.867676 850.693787,837.209595 850.598816,836.278625 
	C850.184631,832.217957 849.268799,828.208496 848.486023,823.911621 
	C846.095032,824.364746 844.333252,824.799194 842.545105,825.018982 
	C836.939819,825.708130 831.325012,826.829834 825.713013,826.835083 
	C817.413879,826.842896 812.043579,821.096863 812.329529,812.544373 
	C825.997742,812.544373 839.725037,812.544373 853.677551,812.544373 
	C853.849243,810.172913 853.955627,808.703430 854.070129,806.311523 
M778.456604,825.103577 
	C776.529907,825.627869 774.628601,826.287842 772.672241,826.653564 
	C762.502563,828.554932 754.996155,823.707153 753.399780,813.533691 
	C752.638428,808.681335 752.631165,803.509949 753.398621,798.659729 
	C755.077637,788.048523 763.041138,783.166443 773.548279,785.754944 
	C776.417725,786.461853 779.186584,787.577087 782.244629,788.585083 
	C782.706482,787.361816 783.182861,786.333374 783.487793,785.256409 
	C786.864014,773.329468 786.365784,772.525391 774.229492,770.117859 
	C754.678528,766.239563 738.438843,774.967224 734.624207,792.665894 
	C732.913818,800.601562 732.712402,809.329956 734.000793,817.349182 
	C736.859680,835.142700 749.360168,844.501465 767.274963,843.371948 
	C772.197266,843.061584 777.109863,841.672974 781.863770,840.238281 
	C783.117981,839.859802 784.471313,837.497559 784.539062,835.990479 
	C784.671631,833.041138 783.829285,830.061157 783.579346,827.077942 
	C783.306763,823.823792 781.653992,823.686768 778.456604,825.103577 
M871.747986,841.589600 
	C876.026062,841.589600 880.304199,841.589600 885.107910,841.589600 
	C885.107910,838.934509 885.107727,837.131287 885.107971,835.328003 
	C885.109680,824.176392 885.091370,813.024658 885.119873,801.873108 
	C885.140747,793.713135 890.567444,788.264099 898.809265,788.152222 
	C901.068420,788.121521 903.330933,788.339783 906.110840,788.467651 
	C906.619934,782.269836 907.101379,776.408386 907.574646,770.646667 
	C897.211731,768.039429 889.754211,772.037903 883.362671,779.101868 
	C880.190491,771.255066 876.012878,769.847107 866.229980,772.499207 
	C866.229980,795.255188 866.229980,818.020142 866.229980,840.730408 
	C866.925049,841.011353 867.369507,841.295715 867.844116,841.361023 
	C868.828979,841.496582 869.829834,841.515869 871.747986,841.589600 
M493.156555,419.395325 
	C508.341187,423.999329 523.384583,423.868103 538.086853,417.609161 
	C540.333801,416.652649 542.016785,414.371521 543.960632,412.703033 
	C541.939209,411.117340 540.150391,408.930542 537.858521,408.043518 
	C523.061340,402.316406 507.887817,402.134308 492.752625,406.355560 
	C489.153931,407.359222 486.070831,410.211578 482.750580,412.213593 
	C485.969910,414.524872 489.189209,416.836121 493.156555,419.395325 
M269.133392,216.529922 
	C269.722595,218.065628 270.311798,219.601318 271.027374,221.466431 
	C274.129547,215.341766 275.817627,208.955093 279.849731,204.898010 
	C283.971008,200.751205 290.391815,198.889740 297.478027,195.144012 
	C282.358734,193.291595 274.805054,184.637161 271.270264,170.905014 
	C268.255493,184.832108 260.858307,193.377579 246.462585,195.198303 
	C251.533249,198.227539 257.039642,199.382889 260.685547,202.628311 
	C264.403198,205.937607 266.291840,211.301559 269.133392,216.529922 
M221.251953,212.092896 
	C220.071411,209.548309 218.890854,207.003708 217.710312,204.459122 
	C217.304504,204.411865 216.898712,204.364624 216.492905,204.317368 
	C214.965012,213.549118 208.906189,218.314743 200.299988,221.110916 
	C209.872391,223.261795 214.822769,229.335693 216.873413,238.749847 
	C219.348053,234.237518 220.665604,230.067322 223.408539,227.320480 
	C226.269989,224.454941 230.504913,222.960907 234.758667,220.510529 
	C232.122818,219.511459 229.704086,218.962341 227.699387,217.736252 
	C225.487076,216.383194 223.654526,214.409195 221.251953,212.092896 
z"/>
<path fill="#000000" opacity="1.000000" stroke="none" 
	d="
M391.526154,524.384460 
	C381.005402,530.463806 370.718811,537.009216 359.879395,542.454224 
	C352.969269,545.925415 345.254639,547.809265 337.864807,550.298218 
	C336.520294,550.751099 335.002289,550.689087 332.785797,550.959900 
	C334.212921,547.541565 335.653900,544.910889 336.425964,542.096619 
	C339.538605,530.750366 343.392059,519.493225 345.172974,507.926208 
	C347.134216,495.187897 342.370911,483.984558 332.613739,475.250366 
	C330.543213,473.396973 328.227722,471.817230 326.362030,469.365265 
	C360.037659,458.429047 386.740417,436.434845 416.799561,419.662292 
	C417.784515,424.999146 418.538422,429.753204 419.549591,434.451935 
	C425.066650,460.088226 437.456390,481.986755 455.861755,500.530457 
	C462.548431,507.267426 469.338348,513.913086 476.307068,520.356140 
	C485.626129,528.972290 490.262421,539.249207 488.566406,552.057983 
	C488.480499,552.706726 488.565765,553.381104 488.605652,554.041382 
	C488.614197,554.182800 488.771912,554.315186 489.239288,555.032471 
	C490.830353,554.752808 492.731812,554.549500 494.563568,554.076416 
	C514.262878,548.989380 530.591736,537.734070 545.978577,525.125916 
	C575.633179,500.826385 596.734619,470.716644 606.450806,433.224365 
	C607.532837,429.049164 608.246704,424.778534 609.462036,418.972015 
	C617.755554,424.546783 625.973755,429.160004 633.144287,435.048950 
	C663.694763,460.139252 680.927612,493.047668 688.161987,531.493896 
	C692.369568,553.854736 693.484253,576.147461 685.167786,597.990662 
	C680.497253,610.257812 672.951355,620.074524 661.262024,626.412292 
	C659.948181,627.124634 658.563354,627.715881 657.178894,628.283936 
	C656.431152,628.590820 655.614380,628.729675 654.676331,628.985962 
	C651.007812,615.674805 647.384583,602.528015 643.761353,589.381226 
	C643.174927,589.484924 642.588440,589.588562 642.002014,589.692261 
	C642.460205,598.045532 642.497986,606.447815 643.465515,614.741638 
	C645.394226,631.276672 647.477783,647.812378 650.254578,664.219604 
	C651.226440,669.961792 649.558105,673.587280 644.911194,675.538330 
	C634.972656,679.711243 624.782043,683.285583 614.675232,687.052979 
	C613.438477,687.513977 612.082703,687.655518 610.036621,687.850464 
	C607.489685,687.749695 605.651611,687.506531 603.892883,687.777527 
	C595.215088,689.114868 586.540283,690.489868 577.902344,692.060181 
	C574.222107,692.729248 570.634338,693.907104 567.004517,694.853760 
	C566.557617,694.907532 566.110718,694.961304 564.943359,694.864746 
	C560.767761,694.648499 557.308044,694.436523 553.858276,694.544189 
	C543.590393,694.864685 533.328003,695.563599 523.060486,695.625183 
	C515.328857,695.671448 507.592957,694.679077 499.858551,694.673340 
	C492.446442,694.667786 485.024811,695.752869 477.624054,695.591858 
	C470.523163,695.437317 463.456726,694.059875 456.350494,693.669617 
	C450.931671,693.372131 445.474274,693.777710 440.034027,693.870544 
	C439.857025,693.876160 439.680054,693.881714 438.982513,693.599182 
	C429.646851,691.864929 420.831818,690.418640 412.016754,688.972351 
	C399.253082,684.858826 386.246948,681.355347 373.812378,676.413696 
	C365.752869,673.210754 365.548615,671.329468 367.103302,662.823792 
	C375.437378,617.228516 383.845917,571.646790 392.362335,525.504150 
	C392.172668,524.760132 391.849396,524.572266 391.526154,524.384460 
z"/>
<path fill="#000000" opacity="1.000000" stroke="none" 
	d="
M563.422852,156.461884 
	C574.092834,189.065140 584.714600,221.684464 595.570984,254.225540 
	C596.129822,255.900574 598.520264,257.682648 600.357483,258.101685 
	C618.220459,262.175934 636.302185,265.490204 652.858887,273.847687 
	C656.252075,275.560455 659.606812,277.583435 662.476196,280.048981 
	C667.777039,284.603790 667.579895,290.218719 661.443542,293.462067 
	C655.179688,296.772675 648.378601,299.383942 641.520569,301.195343 
	C618.226196,307.347931 594.320618,309.519409 570.357178,311.002197 
	C561.549011,311.547211 552.716736,311.702301 543.039429,311.847961 
	C540.544006,311.436707 538.905273,311.024780 537.264954,311.018250 
	C523.304382,310.962646 509.343414,310.946503 495.383057,311.019165 
	C493.593506,311.028473 491.807007,311.614441 490.019073,311.933258 
	C468.100372,310.490814 446.105835,309.745239 424.288696,307.370026 
	C408.794067,305.683136 393.477783,302.076630 378.210876,298.737305 
	C373.118225,297.623413 368.131775,295.169861 363.621704,292.456299 
	C357.580078,288.821228 357.389679,283.128510 363.287903,279.232819 
	C368.517120,275.778992 374.205658,272.537018 380.156616,270.754791 
	C394.960632,266.321259 409.983887,262.580627 425.022644,258.996124 
	C429.139465,258.014893 431.378204,256.468384 433.152985,252.414673 
	C453.529846,205.873169 474.747589,159.717453 499.718781,115.417625 
	C503.935822,107.936401 509.403412,101.073402 514.892883,94.419540 
	C520.861328,87.185158 526.805603,86.123810 534.724609,91.173126 
	C541.709167,95.626587 548.420471,100.714569 554.511597,106.326431 
	C577.544617,127.547058 600.315063,149.053925 623.030029,170.615616 
	C624.497620,172.008682 625.855774,175.295959 625.195190,176.782196 
	C623.815186,179.887085 620.707031,179.212387 617.824890,178.006424 
	C600.164978,170.617004 582.466064,163.320740 564.311157,155.887390 
	C563.702393,156.008194 563.562622,156.235031 563.422852,156.461884 
z"/>
<path fill="#000000" opacity="1.000000" stroke="none" 
	d="
M232.202148,356.808472 
	C198.347214,325.917114 204.424454,274.506104 241.594055,252.294434 
	C261.931854,240.141052 283.419495,239.409058 304.352509,251.386871 
	C327.117493,264.412903 337.820007,284.725891 337.360168,310.649933 
	C336.861694,338.752441 319.733246,360.900299 292.847015,369.445496 
	C291.126312,369.992401 289.428925,370.612854 287.335297,371.331360 
	C289.680725,384.244873 291.987335,396.971405 294.304382,409.696075 
	C297.945312,429.691193 301.661407,449.673035 305.181671,469.689331 
	C305.897461,473.759369 307.324341,476.197937 311.636383,477.813019 
	C322.444641,481.861237 329.081543,489.885620 330.429596,501.580322 
	C331.752655,513.058167 328.030640,522.481445 318.511475,529.526855 
	C317.244873,530.464294 316.415924,533.178223 316.700623,534.844482 
	C319.811768,553.055725 323.195709,571.220337 326.472412,589.403564 
	C326.855682,591.530273 327.201813,593.686401 327.286133,595.839783 
	C327.504700,601.421692 324.191254,605.475586 319.150940,606.015076 
	C314.059998,606.559998 309.929962,603.478271 308.917236,597.915588 
	C306.889252,586.776794 305.087067,575.596985 303.170990,564.437622 
	C301.676819,555.735779 300.090271,547.049255 298.677521,538.334412 
	C298.258270,535.748047 297.301605,534.434326 294.496704,533.722778 
	C281.612732,530.454773 273.569336,522.282166 271.627594,508.976166 
	C269.791199,496.391937 274.444977,486.413635 285.181488,479.522949 
	C287.439941,478.073517 287.641144,476.664307 287.174866,474.222137 
	C280.962189,441.682068 274.836456,409.125122 268.826599,376.547058 
	C268.250702,373.425232 266.938538,372.113678 263.828522,371.577698 
	C252.101990,369.556641 241.593658,364.750946 232.202148,356.808472 
M257.709412,271.082275 
	C249.209717,276.145966 244.889969,283.460663 245.764572,293.496246 
	C246.666290,303.842957 253.218872,309.408936 262.319031,312.671234 
	C264.973999,313.622986 267.757050,314.212738 270.467102,315.016724 
	C274.288086,316.150269 278.296143,316.902008 281.866669,318.578461 
	C288.915283,321.887970 289.204620,330.937347 282.647095,335.167572 
	C275.271881,339.925232 264.678070,336.817322 261.004395,328.938293 
	C260.458740,327.768005 259.224365,326.154083 258.223602,326.090912 
	C253.471970,325.790833 248.690887,325.956757 242.051346,325.956757 
	C244.912430,330.844177 246.331985,335.235260 249.306213,337.874023 
	C253.431076,341.533630 258.528778,344.301331 263.588928,346.626099 
	C266.668152,348.040771 269.097565,348.722748 268.966003,352.900452 
	C268.826782,357.321655 272.658844,355.672333 274.968079,355.793945 
	C277.230713,355.913116 280.604828,356.814697 280.289612,352.707916 
	C279.992584,348.837616 282.060944,348.174988 285.216217,347.518341 
	C293.949554,345.700897 300.510468,340.983948 303.124054,332.044617 
	C306.701691,319.807953 300.971924,308.954132 288.257355,304.363129 
	C282.167175,302.164093 275.698029,301.020721 269.591125,298.860321 
	C263.679382,296.768921 261.146454,292.049072 262.316681,286.827362 
	C263.386963,282.051575 267.852142,278.963409 273.631744,278.904510 
	C281.879425,278.820526 286.275055,283.669067 288.491913,290.562408 
	C293.538605,290.562408 298.103516,290.562408 302.678528,290.562408 
	C302.112549,280.408844 295.466949,272.052673 284.876129,268.409454 
	C281.897064,267.384674 280.317749,266.121429 280.750702,262.844574 
	C281.352295,258.291077 278.073608,258.649261 275.256470,258.814819 
	C272.587891,258.971588 268.549591,257.431152 268.969818,262.549957 
	C269.268250,266.184784 267.607574,267.558594 264.327423,268.239166 
	C262.253937,268.669373 260.339294,269.865082 257.709412,271.082275 
z"/>
<path fill="#000000" opacity="1.000000" stroke="none" 
	d="
M420.124634,365.017395 
	C420.073547,364.563416 420.022461,364.109467 420.146393,362.928497 
	C420.396088,357.930756 420.556915,353.659332 420.524994,349.389374 
	C420.479309,343.276245 420.048950,337.156708 420.236908,331.053864 
	C420.415802,325.246002 421.884125,324.343872 427.628815,324.678955 
	C430.054291,324.820465 432.516876,324.325623 434.962616,324.120056 
	C435.431183,324.112061 435.899780,324.104034 436.991394,324.395874 
	C439.346252,325.194855 441.053741,326.004059 442.813873,326.141998 
	C453.096741,326.948059 463.382843,327.808380 473.684998,328.250427 
	C490.304810,328.963623 506.939484,329.827057 523.565002,329.770630 
	C540.191040,329.714142 556.822388,328.770752 573.432129,327.863190 
	C578.639648,327.578644 583.784668,326.150635 588.958252,325.246033 
	C589.727417,325.154816 590.496521,325.063599 592.031311,325.148895 
	C594.935242,325.525574 597.077026,325.925812 599.211121,325.888153 
	C605.482361,325.777527 606.306091,326.233032 605.891235,332.475616 
	C604.813721,348.690399 603.418396,364.883881 602.201599,381.089752 
	C601.955688,384.364929 601.937256,387.657196 601.813965,390.941589 
	C601.807434,391.136475 601.800964,391.331360 601.547729,391.979980 
	C601.159790,393.276947 601.018616,394.120148 600.877380,394.963379 
	C598.579773,405.879547 595.528564,416.529663 589.601074,427.483429 
	C588.466614,425.087616 587.770264,423.555420 587.023132,422.048401 
	C576.087830,399.993225 558.649414,386.640411 534.039062,383.955597 
	C527.997375,383.296509 521.647766,385.610840 515.421143,386.414886 
	C513.218506,386.699341 510.741272,387.191437 508.763519,386.507263 
	C495.241180,381.829193 482.236908,382.938873 469.573090,389.339417 
	C454.493591,396.960815 442.967438,408.031677 436.228363,423.746124 
	C435.796600,424.752960 435.196228,425.687500 434.191315,427.551453 
	C425.858276,410.348053 422.956665,392.716431 421.154236,374.043823 
	C420.920258,370.502991 420.522430,367.760193 420.124634,365.017395 
M463.410736,363.222992 
	C471.477570,367.709229 480.073120,365.448242 483.262604,358.001068 
	C486.444794,350.571075 482.813538,342.361328 475.171692,339.708710 
	C469.453278,337.723724 463.608032,339.676117 460.249176,344.693054 
	C456.416718,350.417389 457.355621,357.047363 463.410736,363.222992 
M549.249207,339.323822 
	C547.766296,340.059509 546.151917,340.611694 544.824158,341.563721 
	C539.908752,345.088196 538.012512,351.599976 540.140442,357.121124 
	C542.259583,362.619598 548.397034,366.402405 554.012756,365.671234 
	C559.958862,364.897064 564.631836,360.232544 565.454041,354.123627 
	C566.544006,346.024902 559.226135,337.149231 549.249207,339.323822 
z"/>
<path fill="#000000" opacity="1.000000" stroke="none" 
	d="
M513.565430,806.490234 
	C510.320404,797.989441 507.235535,789.842957 504.150635,781.696411 
	C503.899414,781.763916 503.648163,781.831421 503.396942,781.898926 
	C502.280029,801.579834 501.163147,821.260742 500.031189,841.207275 
	C493.601074,841.207275 487.688721,841.207275 481.268860,841.207275 
	C481.893890,831.375427 482.476257,821.956787 483.094757,812.540588 
	C484.404419,792.601624 485.725586,772.663391 487.057281,752.725891 
	C487.590118,744.748169 487.608429,744.749390 495.324280,744.751404 
	C508.715118,744.754944 508.827362,744.713562 513.521667,757.447021 
	C518.071289,769.788269 522.354065,782.227905 526.763123,794.621033 
	C527.310425,796.159180 527.913635,797.677490 528.972839,800.480225 
	C530.030212,798.034607 530.692383,796.668823 531.221619,795.253357 
	C536.992065,779.819763 542.838135,764.413086 548.418518,748.910889 
	C549.577942,745.690125 551.137756,744.417358 554.550903,744.681946 
	C558.359375,744.977295 562.215698,744.902832 566.036987,744.709351 
	C569.301270,744.544006 570.782349,745.546143 571.008972,749.085510 
	C572.614807,774.170837 574.394775,799.244995 576.131348,824.321899 
	C576.508362,829.766357 576.934448,835.207336 577.399231,841.476379 
	C571.161011,841.476379 565.546082,841.731262 559.995789,841.246704 
	C558.970520,841.157166 557.525269,838.117371 557.427612,836.374695 
	C556.533325,820.410706 555.898315,804.432373 555.174316,788.458740 
	C555.092163,786.644897 554.928345,784.834656 553.994568,782.711426 
	C553.405212,783.889404 552.723267,785.030762 552.240723,786.251038 
	C547.405457,798.479004 542.496277,810.679810 537.863892,822.984680 
	C536.662476,826.176086 535.002380,827.275452 531.626343,827.134888 
	C519.123779,826.614197 522.230896,829.287964 517.765564,817.599670 
	C516.398804,814.022278 515.071167,810.429993 513.565430,806.490234 
z"/>
<path fill="#000000" opacity="1.000000" stroke="none" 
	d="
M143.148651,789.059692 
	C148.361984,775.307617 153.530396,761.952209 158.481461,748.516663 
	C159.508469,745.729614 160.922852,744.524963 163.903824,744.676270 
	C167.893158,744.878723 171.900543,744.816101 175.897736,744.739502 
	C178.459747,744.690491 179.866364,745.434631 180.058121,748.334595 
	C182.035919,778.245483 184.114655,808.149658 186.139725,838.057495 
	C186.204117,839.008728 185.994034,839.978516 185.864441,841.495056 
	C180.402527,841.495056 175.118408,841.527954 169.834961,841.482971 
	C166.579407,841.455200 166.895691,838.988159 166.808823,836.837219 
	C166.143311,820.357849 165.484421,803.878296 164.801804,787.399597 
	C164.742218,785.961182 164.527496,784.529175 164.238113,781.618530 
	C163.023376,783.964966 162.383499,784.982178 161.945770,786.079956 
	C157.073639,798.298645 152.112778,810.484375 147.462204,822.787292 
	C146.192963,826.144897 144.441864,827.233643 140.901062,827.171265 
	C130.750198,826.992371 130.741348,827.155701 127.036301,817.582214 
	C122.541512,805.968201 118.058220,794.349609 112.552986,782.683899 
	C112.430901,784.310974 112.277489,785.936340 112.191559,787.565308 
	C111.331535,803.868958 110.394279,820.169495 109.696220,836.480164 
	C109.533325,840.286194 108.248314,841.849976 104.333076,841.624207 
	C99.736877,841.359192 95.113693,841.562073 90.000229,841.562073 
	C92.332893,808.898499 94.606071,777.067932 96.909142,744.818726 
	C103.346512,744.818726 109.337448,744.582458 115.282440,745.000183 
	C116.615326,745.093933 118.347610,747.263977 118.946472,748.839172 
	C124.744644,764.090149 130.337418,779.419189 135.997147,794.722839 
	C136.660721,796.517029 137.374115,798.292786 138.546478,801.323181 
	C140.359863,796.508423 141.693222,792.968201 143.148651,789.059692 
z"/>
<path fill="#000000" opacity="1.000000" stroke="none" 
	d="
M474.865753,782.884399 
	C467.531799,804.023499 460.482788,824.847351 452.989471,845.510132 
	C451.145447,850.595032 448.358887,855.531860 445.119232,859.875671 
	C438.758087,868.404724 425.650970,872.219421 415.832001,868.963806 
	C414.863556,868.642639 413.530334,867.307739 413.550537,866.471985 
	C413.657959,862.029236 414.143188,857.595642 414.522522,852.847046 
	C416.867584,852.958191 418.654083,853.050537 420.441315,853.126282 
	C431.169403,853.580872 436.705475,846.100952 433.191925,836.106262 
	C426.178101,816.154846 419.260254,796.169678 412.319702,776.192566 
	C411.946503,775.118286 411.729462,773.989746 411.200928,771.977112 
	C417.910461,771.977112 424.147675,771.822754 430.359375,772.151062 
	C431.245667,772.197937 432.352814,774.481262 432.774384,775.902588 
	C436.560974,788.669434 440.213867,801.475830 443.918274,814.267151 
	C444.179871,815.170349 444.538727,816.045349 445.380646,818.429321 
	C448.106598,808.610168 450.456329,800.230103 452.755219,791.836121 
	C454.338867,786.053772 455.674561,780.194641 457.518707,774.498596 
	C457.992981,773.033813 459.903687,771.113831 461.267609,771.018250 
	C466.883698,770.624939 472.543365,770.853638 478.950348,770.853638 
	C477.500275,775.118164 476.243591,778.814026 474.865753,782.884399 
z"/>
<path fill="#000000" opacity="1.000000" stroke="none" 
	d="
M258.567841,787.576538 
	C262.633972,799.101990 263.129181,810.444763 259.653412,821.746460 
	C255.022583,836.803772 241.684006,844.895264 224.567017,843.452515 
	C208.377396,842.088013 198.252045,833.071594 196.241425,817.034302 
	C195.341873,809.859192 195.364182,802.356934 196.365570,795.198608 
	C198.542236,779.639465 207.804947,771.469421 224.168945,769.328613 
	C238.788696,767.415894 252.419739,774.542480 258.567841,787.576538 
M230.061630,785.273560 
	C222.661514,785.242004 218.542068,787.353577 216.565506,793.104736 
	C213.685959,801.483215 213.771790,810.136963 216.205307,818.572693 
	C217.871307,824.347778 222.375427,827.076660 228.289993,827.006409 
	C234.315582,826.934875 238.952713,824.239441 239.815430,818.133057 
	C240.886185,810.554199 240.825897,802.701599 240.245529,795.043579 
	C239.858536,789.937012 236.238251,786.425720 230.061630,785.273560 
z"/>
<path fill="#000000" opacity="1.000000" stroke="none" 
	d="
M621.797607,786.973633 
	C615.074768,783.726013 608.740051,785.539856 602.444092,787.074951 
	C599.405029,787.815918 596.451660,788.908752 592.708130,790.076660 
	C591.828186,785.484985 590.826599,781.181702 590.302917,776.820984 
	C590.184814,775.837280 591.507935,774.032043 592.546997,773.657532 
	C603.814819,769.596130 615.361633,767.289917 627.255920,770.394653 
	C638.802490,773.408813 645.368530,781.703857 645.797913,794.636963 
	C646.272461,808.929626 645.991272,823.248108 645.957092,837.555176 
	C645.954651,838.595459 645.598938,840.050049 644.870056,840.600891 
	C641.876587,842.863708 630.508911,840.540344 628.291931,837.423950 
	C623.501404,839.236755 618.845337,841.564392 613.914734,842.762146 
	C596.768311,846.927002 583.343445,833.651733 587.339722,816.597107 
	C589.910950,805.624268 598.518677,801.475342 608.349365,799.235962 
	C612.209839,798.356506 616.256897,798.190979 620.234131,797.954895 
	C626.127075,797.605042 627.452271,795.486694 624.686768,790.195312 
	C624.091980,789.057312 622.997009,788.180725 621.797607,786.973633 
M606.098389,819.756470 
	C605.823669,824.289307 607.941711,827.501221 612.376465,827.702698 
	C615.829895,827.859619 619.487122,826.806641 622.806946,825.607727 
	C625.550415,824.616943 627.308228,813.502075 625.416992,811.232788 
	C625.123230,810.880371 624.617126,810.660034 624.167236,810.489136 
	C618.030884,808.157532 608.599854,812.613403 606.098389,819.756470 
z"/>
<path fill="#000000" opacity="1.000000" stroke="none" 
	d="
M375.406219,843.445923 
	C356.588257,841.424133 345.882599,830.030151 344.918732,811.530090 
	C344.499176,803.476257 344.921692,795.569580 348.153412,788.018921 
	C353.764374,774.909363 366.588226,767.484497 380.760437,769.192017 
	C394.642914,770.864563 403.492035,779.441589 406.015259,794.134888 
	C406.798492,798.695618 406.704834,803.402283 407.119598,808.032593 
	C407.413361,811.312195 405.971313,812.386475 402.789185,812.352112 
	C392.137177,812.237061 381.482880,812.293091 370.829834,812.349304 
	C368.726166,812.360352 366.623993,812.663574 364.557617,812.829224 
	C364.651093,821.356140 369.924927,826.922302 378.531067,826.760071 
	C385.947571,826.620300 393.341888,825.301514 401.614441,824.410461 
	C402.253662,828.239380 403.126221,832.390076 403.497803,836.585144 
	C403.573517,837.440186 401.884888,839.104736 400.807007,839.304932 
	C392.515411,840.844910 384.173828,842.115540 375.406219,843.445923 
M388.254028,796.061890 
	C386.132233,786.941528 381.626556,783.544189 373.708710,785.094543 
	C367.850952,786.241516 364.274445,791.830322 365.160675,798.990295 
	C372.188873,798.990295 379.282471,799.048950 386.371552,798.896057 
	C387.051361,798.881470 387.702789,797.549927 388.254028,796.061890 
z"/>
<path fill="#000000" opacity="1.000000" stroke="none" 
	d="
M854.066040,806.772705 
	C853.955627,808.703430 853.849243,810.172913 853.677551,812.544373 
	C839.725037,812.544373 825.997742,812.544373 812.329529,812.544373 
	C812.043579,821.096863 817.413879,826.842896 825.713013,826.835083 
	C831.325012,826.829834 836.939819,825.708130 842.545105,825.018982 
	C844.333252,824.799194 846.095032,824.364746 848.486023,823.911621 
	C849.268799,828.208496 850.184631,832.217957 850.598816,836.278625 
	C850.693787,837.209595 849.262939,838.867676 848.194092,839.256775 
	C838.514160,842.780823 828.580872,844.543091 818.261902,842.738403 
	C806.931091,840.756775 799.120850,834.348267 795.249695,823.587891 
	C791.169556,812.246948 791.033936,800.666565 795.126099,789.293884 
	C801.409729,771.830688 822.373596,763.671143 838.866882,772.247925 
	C849.728699,777.896240 852.956665,788.062195 853.956543,799.315674 
	C854.162415,801.632690 854.040833,803.978821 854.066040,806.772705 
M812.303101,798.353394 
	C819.993286,798.353394 827.683411,798.353394 835.384338,798.353394 
	C836.166138,788.947205 829.688416,783.035339 820.779358,785.138184 
	C815.705017,786.335876 812.704712,790.570190 812.303101,798.353394 
z"/>
<path fill="#000000" opacity="1.000000" stroke="none" 
	d="
M316.126953,840.027710 
	C316.089142,838.931396 316.051270,837.835083 316.194519,835.943237 
	C316.522278,823.306458 316.710541,811.465271 316.753265,799.623657 
	C316.757690,798.398315 315.895660,797.169861 315.435699,795.942810 
	C313.001190,784.722717 302.425354,783.357239 295.116882,791.385010 
	C293.745667,792.891174 293.015808,795.505249 292.985229,797.622375 
	C292.797882,810.604553 292.784088,823.592651 292.972412,836.574951 
	C293.025757,840.251648 291.767975,841.499390 288.150360,841.644653 
	C273.592041,842.229492 273.591309,842.319153 273.484344,828.010376 
	C273.358673,811.197205 273.240570,794.384033 273.122253,777.570862 
	C273.110687,775.923767 273.120728,774.276489 273.120728,772.765747 
	C281.803101,769.901001 288.078064,771.320862 291.791504,777.039734 
	C294.329590,775.574646 296.843079,774.010742 299.455292,772.634338 
	C315.624329,764.114258 330.795502,771.429749 333.756042,789.422485 
	C334.613983,794.636780 334.434174,800.034485 334.569824,805.352173 
	C334.832977,815.668152 334.873169,825.990967 335.236481,836.302795 
	C335.369049,840.065674 334.278870,841.891663 330.248077,841.622131 
	C326.434937,841.367188 322.597900,841.469543 318.149414,841.153687 
	C317.060638,840.604248 316.593811,840.315979 316.126953,840.027710 
z"/>
<path fill="#000000" opacity="1.000000" stroke="none" 
	d="
M702.890259,798.469482 
	C702.709778,797.945312 702.529358,797.421204 702.566162,796.338623 
	C701.996460,794.177002 701.209656,792.573792 700.422791,790.970581 
	C697.061340,786.754944 692.770508,784.774048 687.672119,787.057800 
	C682.016357,789.591248 678.870239,792.629700 679.160217,799.557068 
	C679.654297,811.359253 679.148254,823.200134 679.421082,835.016418 
	C679.531921,839.817993 678.340149,841.826843 673.048401,841.716125 
	C660.012085,841.443237 660.076782,841.692932 659.997131,828.467346 
	C659.891846,810.988953 659.733032,793.510132 659.424744,776.034485 
	C659.368591,772.852051 660.179749,771.299805 663.546143,771.613098 
	C665.032104,771.751343 666.541626,771.617310 668.039612,771.648315 
	C672.253784,771.735535 677.192505,770.298523 677.958374,777.471741 
	C688.274841,770.320007 698.340088,765.805298 709.800171,772.137024 
	C717.596985,776.444885 720.091370,783.928894 720.891541,792.978027 
	C720.473633,796.236572 720.028076,798.691101 720.008423,801.149048 
	C719.922546,811.902710 720.116699,822.661682 719.817505,833.407837 
	C719.759644,835.487488 718.050964,839.205261 716.930908,839.272217 
	C712.675415,839.526428 708.348999,838.593140 704.046143,837.624634 
	C704.030396,827.427612 704.017639,817.709656 704.007751,807.546753 
	C703.637146,804.224426 703.263733,801.346924 702.890259,798.469482 
z"/>
<path fill="#000000" opacity="1.000000" stroke="none" 
	d="
M778.844971,824.993896 
	C781.653992,823.686768 783.306763,823.823792 783.579346,827.077942 
	C783.829285,830.061157 784.671631,833.041138 784.539062,835.990479 
	C784.471313,837.497559 783.117981,839.859802 781.863770,840.238281 
	C777.109863,841.672974 772.197266,843.061584 767.274963,843.371948 
	C749.360168,844.501465 736.859680,835.142700 734.000793,817.349182 
	C732.712402,809.329956 732.913818,800.601562 734.624207,792.665894 
	C738.438843,774.967224 754.678528,766.239563 774.229492,770.117859 
	C786.365784,772.525391 786.864014,773.329468 783.487793,785.256409 
	C783.182861,786.333374 782.706482,787.361816 782.244629,788.585083 
	C779.186584,787.577087 776.417725,786.461853 773.548279,785.754944 
	C763.041138,783.166443 755.077637,788.048523 753.398621,798.659729 
	C752.631165,803.509949 752.638428,808.681335 753.399780,813.533691 
	C754.996155,823.707153 762.502563,828.554932 772.672241,826.653564 
	C774.628601,826.287842 776.529907,825.627869 778.844971,824.993896 
z"/>
<path fill="#000000" opacity="1.000000" stroke="none" 
	d="
M871.286072,841.586304 
	C869.829834,841.515869 868.828979,841.496582 867.844116,841.361023 
	C867.369507,841.295715 866.925049,841.011353 866.229980,840.730408 
	C866.229980,818.020142 866.229980,795.255188 866.229980,772.499207 
	C876.012878,769.847107 880.190491,771.255066 883.362671,779.101868 
	C889.754211,772.037903 897.211731,768.039429 907.574646,770.646667 
	C907.101379,776.408386 906.619934,782.269836 906.110840,788.467651 
	C903.330933,788.339783 901.068420,788.121521 898.809265,788.152222 
	C890.567444,788.264099 885.140747,793.713135 885.119873,801.873108 
	C885.091370,813.024658 885.109680,824.176392 885.107971,835.328003 
	C885.107727,837.131287 885.107910,838.934509 885.107910,841.589600 
	C880.304199,841.589600 876.026062,841.589600 871.286072,841.586304 
z"/>
<path fill="#000000" opacity="1.000000" stroke="none" 
	d="
M492.782532,419.271362 
	C489.189209,416.836121 485.969910,414.524872 482.750580,412.213593 
	C486.070831,410.211578 489.153931,407.359222 492.752625,406.355560 
	C507.887817,402.134308 523.061340,402.316406 537.858521,408.043518 
	C540.150391,408.930542 541.939209,411.117340 543.960632,412.703033 
	C542.016785,414.371521 540.333801,416.652649 538.086853,417.609161 
	C523.384583,423.868103 508.341187,423.999329 492.782532,419.271362 
z"/>
<path fill="#000000" opacity="1.000000" stroke="none" 
	d="
M269.057343,216.147919 
	C266.291840,211.301559 264.403198,205.937607 260.685547,202.628311 
	C257.039642,199.382889 251.533249,198.227539 246.462585,195.198303 
	C260.858307,193.377579 268.255493,184.832108 271.270264,170.905014 
	C274.805054,184.637161 282.358734,193.291595 297.478027,195.144012 
	C290.391815,198.889740 283.971008,200.751205 279.849731,204.898010 
	C275.817627,208.955093 274.129547,215.341766 271.027374,221.466431 
	C270.311798,219.601318 269.722595,218.065628 269.057343,216.147919 
z"/>
<path fill="#000000" opacity="1.000000" stroke="none" 
	d="
M221.454254,212.399277 
	C223.654526,214.409195 225.487076,216.383194 227.699387,217.736252 
	C229.704086,218.962341 232.122818,219.511459 234.758667,220.510529 
	C230.504913,222.960907 226.269989,224.454941 223.408539,227.320480 
	C220.665604,230.067322 219.348053,234.237518 216.873413,238.749847 
	C214.822769,229.335693 209.872391,223.261795 200.299988,221.110916 
	C208.906189,218.314743 214.965012,213.549118 216.492905,204.317368 
	C216.898712,204.364624 217.304504,204.411865 217.710312,204.459122 
	C218.890854,207.003708 220.071411,209.548309 221.454254,212.399277 
z"/>
<path fill="#000000" opacity="1.000000" stroke="none" 
	d="
M588.517151,325.234985 
	C583.784668,326.150635 578.639648,327.578644 573.432129,327.863190 
	C556.822388,328.770752 540.191040,329.714142 523.565002,329.770630 
	C506.939484,329.827057 490.304810,328.963623 473.684998,328.250427 
	C463.382843,327.808380 453.096741,326.948059 442.813873,326.141998 
	C441.053741,326.004059 439.346252,325.194855 437.332520,324.485657 
	C485.196838,328.767761 533.389954,328.840546 581.615112,325.796814 
	C583.772278,325.660675 585.922546,325.417358 588.517151,325.234985 
z"/>
<path fill="#000000" opacity="1.000000" stroke="none" 
	d="
M440.435059,693.951172 
	C445.474274,693.777710 450.931671,693.372131 456.350494,693.669617 
	C463.456726,694.059875 470.523163,695.437317 477.624054,695.591858 
	C485.024811,695.752869 492.446442,694.667786 499.858551,694.673340 
	C507.592957,694.679077 515.328857,695.671448 523.060486,695.625183 
	C533.328003,695.563599 543.590393,694.864685 553.858276,694.544189 
	C557.308044,694.436523 560.767761,694.648499 564.605652,694.843140 
	C538.041565,695.763794 511.096375,697.061768 484.147491,697.143494 
	C469.713623,697.187317 455.273438,695.137024 440.435059,693.951172 
z"/>
<path fill="#000000" opacity="1.000000" stroke="none" 
	d="
M601.903931,390.556335 
	C601.937256,387.657196 601.955688,384.364929 602.201599,381.089752 
	C603.418396,364.883881 604.813721,348.690399 605.891235,332.475616 
	C606.306091,326.233032 605.482361,325.777527 599.211121,325.888153 
	C597.077026,325.925812 594.935242,325.525574 592.417114,325.200897 
	C596.976685,324.569824 601.916016,324.063263 607.682922,323.471832 
	C607.926880,346.252045 606.591370,368.332336 601.903931,390.556335 
z"/>
<path fill="#000000" opacity="1.000000" stroke="none" 
	d="
M704.049072,838.103699 
	C708.348999,838.593140 712.675415,839.526428 716.930908,839.272217 
	C718.050964,839.205261 719.759644,835.487488 719.817505,833.407837 
	C720.116699,822.661682 719.922546,811.902710 720.008423,801.149048 
	C720.028076,798.691101 720.473633,796.236572 720.860229,793.391846 
	C721.229065,807.957764 721.519836,822.911987 721.578491,837.867188 
	C721.583069,839.039185 720.040771,841.160828 719.093201,841.234070 
	C714.299622,841.604553 709.460327,841.550293 704.650208,841.340942 
	C704.004272,841.312805 703.433411,839.560974 703.167969,838.331055 
	C703.688416,838.071045 703.868713,838.087341 704.049072,838.103699 
z"/>
<path fill="#000000" opacity="1.000000" stroke="none" 
	d="
M434.559143,324.054596 
	C432.516876,324.325623 430.054291,324.820465 427.628815,324.678955 
	C421.884125,324.343872 420.415802,325.246002 420.236908,331.053864 
	C420.048950,337.156708 420.479309,343.276245 420.524994,349.389374 
	C420.556915,353.659332 420.396088,357.930756 420.189209,362.587341 
	C419.542969,349.613068 419.028900,336.252930 418.484283,322.098663 
	C424.473907,322.821198 429.314789,323.405182 434.559143,324.054596 
z"/>
<path fill="#000000" opacity="1.000000" stroke="none" 
	d="
M567.435852,694.874451 
	C570.634338,693.907104 574.222107,692.729248 577.902344,692.060181 
	C586.540283,690.489868 595.215088,689.114868 603.892883,687.777527 
	C605.651611,687.506531 607.489685,687.749695 609.640625,687.869385 
	C595.949158,690.286987 581.908142,692.591064 567.435852,694.874451 
z"/>
<path fill="#000000" opacity="1.000000" stroke="none" 
	d="
M412.377075,689.084534 
	C420.831818,690.418640 429.646851,691.864929 438.725220,693.533203 
	C430.238159,692.235779 421.487793,690.716248 412.377075,689.084534 
z"/>
<path fill="#000000" opacity="1.000000" stroke="none" 
	d="
M490.483887,311.987793 
	C491.807007,311.614441 493.593506,311.028473 495.383057,311.019165 
	C509.343414,310.946503 523.304382,310.962646 537.264954,311.018250 
	C538.905273,311.024780 540.544006,311.436707 542.571899,311.788757 
	C525.623169,311.958649 508.285950,312.000519 490.483887,311.987793 
z"/>
<path fill="#000000" opacity="1.000000" stroke="none" 
	d="
M315.468567,796.419189 
	C315.895660,797.169861 316.757690,798.398315 316.753265,799.623657 
	C316.710541,811.465271 316.522278,823.306458 316.256775,835.535645 
	C315.925751,822.914185 315.713593,809.904846 315.468567,796.419189 
z"/>
<path fill="#000000" opacity="1.000000" stroke="none" 
	d="
M704.046143,837.624634 
	C703.868713,838.087341 703.688416,838.071045 703.238647,838.020752 
	C702.793518,828.310120 702.617737,818.633545 702.743042,808.511841 
	C703.363831,808.034668 703.684082,808.009644 704.004883,807.991638 
	C704.017639,817.709656 704.030396,827.427612 704.046143,837.624634 
z"/>
<path fill="#000000" opacity="1.000000" stroke="none" 
	d="
M704.007751,807.546753 
	C703.684082,808.009644 703.363831,808.034668 702.803406,808.075867 
	C702.508301,805.133911 702.453857,802.182800 702.644836,798.850586 
	C703.263733,801.346924 703.637146,804.224426 704.007751,807.546753 
z"/>
<path fill="#000000" opacity="1.000000" stroke="none" 
	d="
M420.097229,365.438782 
	C420.522430,367.760193 420.920258,370.502991 421.196777,373.604919 
	C420.740234,371.262756 420.404999,368.561432 420.097229,365.438782 
z"/>
<path fill="#000000" opacity="1.000000" stroke="none" 
	d="
M700.542725,791.345337 
	C701.209656,792.573792 701.996460,794.177002 702.831482,796.173340 
	C702.140625,794.951050 701.401672,793.335632 700.542725,791.345337 
z"/>
<path fill="#000000" opacity="1.000000" stroke="none" 
	d="
M600.963135,394.677856 
	C601.018616,394.120148 601.159790,393.276947 601.439575,392.251709 
	C601.401672,392.843933 601.225281,393.618134 600.963135,394.677856 
z"/>
<path fill="#000000" opacity="1.000000" stroke="none" 
	d="
M316.203522,840.334351 
	C316.593811,840.315979 317.060638,840.604248 317.756104,841.045288 
	C317.416534,841.012329 316.848297,840.826660 316.203522,840.334351 
z"/>
<path fill="#FFFFFF" opacity="1.000000" stroke="none" 
	d="
M391.713928,524.603455 
	C391.849396,524.572266 392.172668,524.760132 392.388916,525.102173 
	C392.155182,525.111694 392.028473,524.967041 391.713928,524.603455 
z"/>
<path fill="#FFFFFF" opacity="1.000000" stroke="none" 
	d="
M563.576965,156.335037 
	C563.562622,156.235031 563.702393,156.008194 563.938477,155.865234 
	C564.034790,155.949127 563.731079,156.208191 563.576965,156.335037 
z"/>
<path fill="#FFFFFF" opacity="1.000000" stroke="none" 
	d="
M258.031433,270.899872 
	C260.339294,269.865082 262.253937,268.669373 264.327423,268.239166 
	C267.607574,267.558594 269.268250,266.184784 268.969818,262.549957 
	C268.549591,257.431152 272.587891,258.971588 275.256470,258.814819 
	C278.073608,258.649261 281.352295,258.291077 280.750702,262.844574 
	C280.317749,266.121429 281.897064,267.384674 284.876129,268.409454 
	C295.466949,272.052673 302.112549,280.408844 302.678528,290.562408 
	C298.103516,290.562408 293.538605,290.562408 288.491913,290.562408 
	C286.275055,283.669067 281.879425,278.820526 273.631744,278.904510 
	C267.852142,278.963409 263.386963,282.051575 262.316681,286.827362 
	C261.146454,292.049072 263.679382,296.768921 269.591125,298.860321 
	C275.698029,301.020721 282.167175,302.164093 288.257355,304.363129 
	C300.971924,308.954132 306.701691,319.807953 303.124054,332.044617 
	C300.510468,340.983948 293.949554,345.700897 285.216217,347.518341 
	C282.060944,348.174988 279.992584,348.837616 280.289612,352.707916 
	C280.604828,356.814697 277.230713,355.913116 274.968079,355.793945 
	C272.658844,355.672333 268.826782,357.321655 268.966003,352.900452 
	C269.097565,348.722748 266.668152,348.040771 263.588928,346.626099 
	C258.528778,344.301331 253.431076,341.533630 249.306213,337.874023 
	C246.331985,335.235260 244.912430,330.844177 242.051346,325.956757 
	C248.690887,325.956757 253.471970,325.790833 258.223602,326.090912 
	C259.224365,326.154083 260.458740,327.768005 261.004395,328.938293 
	C264.678070,336.817322 275.271881,339.925232 282.647095,335.167572 
	C289.204620,330.937347 288.915283,321.887970 281.866669,318.578461 
	C278.296143,316.902008 274.288086,316.150269 270.467102,315.016724 
	C267.757050,314.212738 264.973999,313.622986 262.319031,312.671234 
	C253.218872,309.408936 246.666290,303.842957 245.764572,293.496246 
	C244.889969,283.460663 249.209717,276.145966 258.031433,270.899872 
z"/>
<path fill="#FFFFFF" opacity="1.000000" stroke="none" 
	d="
M463.110840,363.002808 
	C457.355621,357.047363 456.416718,350.417389 460.249176,344.693054 
	C463.608032,339.676117 469.453278,337.723724 475.171692,339.708710 
	C482.813538,342.361328 486.444794,350.571075 483.262604,358.001068 
	C480.073120,365.448242 471.477570,367.709229 463.110840,363.002808 
z"/>
<path fill="#FFFFFF" opacity="1.000000" stroke="none" 
	d="
M549.651733,339.249329 
	C559.226135,337.149231 566.544006,346.024902 565.454041,354.123627 
	C564.631836,360.232544 559.958862,364.897064 554.012756,365.671234 
	C548.397034,366.402405 542.259583,362.619598 540.140442,357.121124 
	C538.012512,351.599976 539.908752,345.088196 544.824158,341.563721 
	C546.151917,340.611694 547.766296,340.059509 549.651733,339.249329 
z"/>
<path fill="#FFFFFF" opacity="1.000000" stroke="none" 
	d="
M230.459198,785.329346 
	C236.238251,786.425720 239.858536,789.937012 240.245529,795.043579 
	C240.825897,802.701599 240.886185,810.554199 239.815430,818.133057 
	C238.952713,824.239441 234.315582,826.934875 228.289993,827.006409 
	C222.375427,827.076660 217.871307,824.347778 216.205307,818.572693 
	C213.771790,810.136963 213.685959,801.483215 216.565506,793.104736 
	C218.542068,787.353577 222.661514,785.242004 230.459198,785.329346 
z"/>
<path fill="#FFFFFF" opacity="1.000000" stroke="none" 
	d="
M606.142395,819.362671 
	C608.599854,812.613403 618.030884,808.157532 624.167236,810.489136 
	C624.617126,810.660034 625.123230,810.880371 625.416992,811.232788 
	C627.308228,813.502075 625.550415,824.616943 622.806946,825.607727 
	C619.487122,826.806641 615.829895,827.859619 612.376465,827.702698 
	C607.941711,827.501221 605.823669,824.289307 606.142395,819.362671 
z"/>
<path fill="#FFFFFF" opacity="1.000000" stroke="none" 
	d="
M388.310699,796.445801 
	C387.702789,797.549927 387.051361,798.881470 386.371552,798.896057 
	C379.282471,799.048950 372.188873,798.990295 365.160675,798.990295 
	C364.274445,791.830322 367.850952,786.241516 373.708710,785.094543 
	C381.626556,783.544189 386.132233,786.941528 388.310699,796.445801 
z"/>
<path fill="#FFFFFF" opacity="1.000000" stroke="none" 
	d="
M812.150879,797.941895 
	C812.704712,790.570190 815.705017,786.335876 820.779358,785.138184 
	C829.688416,783.035339 836.166138,788.947205 835.384338,798.353394 
	C827.683411,798.353394 819.993286,798.353394 812.150879,797.941895 
z"/>
</svg>