<svg version="1.1" id="Layer_1" xmlns="http://www.w3.org/2000/svg" xmlns:xlink="http://www.w3.org/1999/xlink" x="0px" y="0px"
	 width="100%" viewBox="150 50 650 650" enable-background="new 150 0 1024 1024" xml:space="preserve">

<path fill="#111111" opacity="1.000000" stroke="none" 
	d="
M391.526154,524.384460 
	C381.005402,530.463806 370.718811,537.009216 359.879395,542.454224 
	C352.969269,545.925415 345.254639,547.809265 337.864807,550.298218 
	C336.520294,550.751099 335.002289,550.689087 332.785797,550.959900 
	C334.212921,547.541565 335.653900,544.910889 336.425964,542.096619 
	C339.538605,530.750366 343.392059,519.493225 345.172974,507.926208 
	C347.134216,495.187897 342.370911,483.984558 332.613739,475.250366 
	C330.543213,473.396973 328.227722,471.817230 326.362030,469.365265 
	C360.037659,458.429047 386.740417,436.434845 416.799561,419.662292 
	C417.784515,424.999146 418.538422,429.753204 419.549591,434.451935 
	C425.066650,460.088226 437.456390,481.986755 455.861755,500.530457 
	C462.548431,507.267426 469.338348,513.913086 476.307068,520.356140 
	C485.626129,528.972290 490.262421,539.249207 488.566406,552.057983 
	C488.480499,552.706726 488.565765,553.381104 488.605652,554.041382 
	C488.614197,554.182800 488.771912,554.315186 489.239288,555.032471 
	C490.830353,554.752808 492.731812,554.549500 494.563568,554.076416 
	C514.262878,548.989380 530.591736,537.734070 545.978577,525.125916 
	C575.633179,500.826385 596.734619,470.716644 606.450806,433.224365 
	C607.532837,429.049164 608.246704,424.778534 609.462036,418.972015 
	C617.755554,424.546783 625.973755,429.160004 633.144287,435.048950 
	C663.694763,460.139252 680.927612,493.047668 688.161987,531.493896 
	C692.369568,553.854736 693.484253,576.147461 685.167786,597.990662 
	C680.497253,610.257812 672.951355,620.074524 661.262024,626.412292 
	C659.948181,627.124634 658.563354,627.715881 657.178894,628.283936 
	C656.431152,628.590820 655.614380,628.729675 654.676331,628.985962 
	C651.007812,615.674805 647.384583,602.528015 643.761353,589.381226 
	C643.174927,589.484924 642.588440,589.588562 642.002014,589.692261 
	C642.460205,598.045532 642.497986,606.447815 643.465515,614.741638 
	C645.394226,631.276672 647.477783,647.812378 650.254578,664.219604 
	C651.226440,669.961792 649.558105,673.587280 644.911194,675.538330 
	C634.972656,679.711243 624.782043,683.285583 614.675232,687.052979 
	C613.438477,687.513977 612.082703,687.655518 610.036621,687.850464 
	C607.489685,687.749695 605.651611,687.506531 603.892883,687.777527 
	C595.215088,689.114868 586.540283,690.489868 577.902344,692.060181 
	C574.222107,692.729248 570.634338,693.907104 567.004517,694.853760 
	C566.557617,694.907532 566.110718,694.961304 564.943359,694.864746 
	C560.767761,694.648499 557.308044,694.436523 553.858276,694.544189 
	C543.590393,694.864685 533.328003,695.563599 523.060486,695.625183 
	C515.328857,695.671448 507.592957,694.679077 499.858551,694.673340 
	C492.446442,694.667786 485.024811,695.752869 477.624054,695.591858 
	C470.523163,695.437317 463.456726,694.059875 456.350494,693.669617 
	C450.931671,693.372131 445.474274,693.777710 440.034027,693.870544 
	C439.857025,693.876160 439.680054,693.881714 438.982513,693.599182 
	C429.646851,691.864929 420.831818,690.418640 412.016754,688.972351 
	C399.253082,684.858826 386.246948,681.355347 373.812378,676.413696 
	C365.752869,673.210754 365.548615,671.329468 367.103302,662.823792 
	C375.437378,617.228516 383.845917,571.646790 392.362335,525.504150 
	C392.172668,524.760132 391.849396,524.572266 391.526154,524.384460 
z"/>
<path fill="#111111" opacity="1.000000" stroke="none" 
	d="
M563.422852,156.461884 
	C574.092834,189.065140 584.714600,221.684464 595.570984,254.225540 
	C596.129822,255.900574 598.520264,257.682648 600.357483,258.101685 
	C618.220459,262.175934 636.302185,265.490204 652.858887,273.847687 
	C656.252075,275.560455 659.606812,277.583435 662.476196,280.048981 
	C667.777039,284.603790 667.579895,290.218719 661.443542,293.462067 
	C655.179688,296.772675 648.378601,299.383942 641.520569,301.195343 
	C618.226196,307.347931 594.320618,309.519409 570.357178,311.002197 
	C561.549011,311.547211 552.716736,311.702301 543.039429,311.847961 
	C540.544006,311.436707 538.905273,311.024780 537.264954,311.018250 
	C523.304382,310.962646 509.343414,310.946503 495.383057,311.019165 
	C493.593506,311.028473 491.807007,311.614441 490.019073,311.933258 
	C468.100372,310.490814 446.105835,309.745239 424.288696,307.370026 
	C408.794067,305.683136 393.477783,302.076630 378.210876,298.737305 
	C373.118225,297.623413 368.131775,295.169861 363.621704,292.456299 
	C357.580078,288.821228 357.389679,283.128510 363.287903,279.232819 
	C368.517120,275.778992 374.205658,272.537018 380.156616,270.754791 
	C394.960632,266.321259 409.983887,262.580627 425.022644,258.996124 
	C429.139465,258.014893 431.378204,256.468384 433.152985,252.414673 
	C453.529846,205.873169 474.747589,159.717453 499.718781,115.417625 
	C503.935822,107.936401 509.403412,101.073402 514.892883,94.419540 
	C520.861328,87.185158 526.805603,86.123810 534.724609,91.173126 
	C541.709167,95.626587 548.420471,100.714569 554.511597,106.326431 
	C577.544617,127.547058 600.315063,149.053925 623.030029,170.615616 
	C624.497620,172.008682 625.855774,175.295959 625.195190,176.782196 
	C623.815186,179.887085 620.707031,179.212387 617.824890,178.006424 
	C600.164978,170.617004 582.466064,163.320740 564.311157,155.887390 
	C563.702393,156.008194 563.562622,156.235031 563.422852,156.461884 
z"/>
<path fill="#111111" opacity="1.000000" stroke="none" 
	d="
M232.202148,356.808472 
	C198.347214,325.917114 204.424454,274.506104 241.594055,252.294434 
	C261.931854,240.141052 283.419495,239.409058 304.352509,251.386871 
	C327.117493,264.412903 337.820007,284.725891 337.360168,310.649933 
	C336.861694,338.752441 319.733246,360.900299 292.847015,369.445496 
	C291.126312,369.992401 289.428925,370.612854 287.335297,371.331360 
	C289.680725,384.244873 291.987335,396.971405 294.304382,409.696075 
	C297.945312,429.691193 301.661407,449.673035 305.181671,469.689331 
	C305.897461,473.759369 307.324341,476.197937 311.636383,477.813019 
	C322.444641,481.861237 329.081543,489.885620 330.429596,501.580322 
	C331.752655,513.058167 328.030640,522.481445 318.511475,529.526855 
	C317.244873,530.464294 316.415924,533.178223 316.700623,534.844482 
	C319.811768,553.055725 323.195709,571.220337 326.472412,589.403564 
	C326.855682,591.530273 327.201813,593.686401 327.286133,595.839783 
	C327.504700,601.421692 324.191254,605.475586 319.150940,606.015076 
	C314.059998,606.559998 309.929962,603.478271 308.917236,597.915588 
	C306.889252,586.776794 305.087067,575.596985 303.170990,564.437622 
	C301.676819,555.735779 300.090271,547.049255 298.677521,538.334412 
	C298.258270,535.748047 297.301605,534.434326 294.496704,533.722778 
	C281.612732,530.454773 273.569336,522.282166 271.627594,508.976166 
	C269.791199,496.391937 274.444977,486.413635 285.181488,479.522949 
	C287.439941,478.073517 287.641144,476.664307 287.174866,474.222137 
	C280.962189,441.682068 274.836456,409.125122 268.826599,376.547058 
	C268.250702,373.425232 266.938538,372.113678 263.828522,371.577698 
	C252.101990,369.556641 241.593658,364.750946 232.202148,356.808472 
M257.709412,271.082275 
	C249.209717,276.145966 244.889969,283.460663 245.764572,293.496246 
	C246.666290,303.842957 253.218872,309.408936 262.319031,312.671234 
	C264.973999,313.622986 267.757050,314.212738 270.467102,315.016724 
	C274.288086,316.150269 278.296143,316.902008 281.866669,318.578461 
	C288.915283,321.887970 289.204620,330.937347 282.647095,335.167572 
	C275.271881,339.925232 264.678070,336.817322 261.004395,328.938293 
	C260.458740,327.768005 259.224365,326.154083 258.223602,326.090912 
	C253.471970,325.790833 248.690887,325.956757 242.051346,325.956757 
	C244.912430,330.844177 246.331985,335.235260 249.306213,337.874023 
	C253.431076,341.533630 258.528778,344.301331 263.588928,346.626099 
	C266.668152,348.040771 269.097565,348.722748 268.966003,352.900452 
	C268.826782,357.321655 272.658844,355.672333 274.968079,355.793945 
	C277.230713,355.913116 280.604828,356.814697 280.289612,352.707916 
	C279.992584,348.837616 282.060944,348.174988 285.216217,347.518341 
	C293.949554,345.700897 300.510468,340.983948 303.124054,332.044617 
	C306.701691,319.807953 300.971924,308.954132 288.257355,304.363129 
	C282.167175,302.164093 275.698029,301.020721 269.591125,298.860321 
	C263.679382,296.768921 261.146454,292.049072 262.316681,286.827362 
	C263.386963,282.051575 267.852142,278.963409 273.631744,278.904510 
	C281.879425,278.820526 286.275055,283.669067 288.491913,290.562408 
	C293.538605,290.562408 298.103516,290.562408 302.678528,290.562408 
	C302.112549,280.408844 295.466949,272.052673 284.876129,268.409454 
	C281.897064,267.384674 280.317749,266.121429 280.750702,262.844574 
	C281.352295,258.291077 278.073608,258.649261 275.256470,258.814819 
	C272.587891,258.971588 268.549591,257.431152 268.969818,262.549957 
	C269.268250,266.184784 267.607574,267.558594 264.327423,268.239166 
	C262.253937,268.669373 260.339294,269.865082 257.709412,271.082275 
z"/>
<path fill="#111111" opacity="1.000000" stroke="none" 
	d="
M420.124634,365.017395 
	C420.073547,364.563416 420.022461,364.109467 420.146393,362.928497 
	C420.396088,357.930756 420.556915,353.659332 420.524994,349.389374 
	C420.479309,343.276245 420.048950,337.156708 420.236908,331.053864 
	C420.415802,325.246002 421.884125,324.343872 427.628815,324.678955 
	C430.054291,324.820465 432.516876,324.325623 434.962616,324.120056 
	C435.431183,324.112061 435.899780,324.104034 436.991394,324.395874 
	C439.346252,325.194855 441.053741,326.004059 442.813873,326.141998 
	C453.096741,326.948059 463.382843,327.808380 473.684998,328.250427 
	C490.304810,328.963623 506.939484,329.827057 523.565002,329.770630 
	C540.191040,329.714142 556.822388,328.770752 573.432129,327.863190 
	C578.639648,327.578644 583.784668,326.150635 588.958252,325.246033 
	C589.727417,325.154816 590.496521,325.063599 592.031311,325.148895 
	C594.935242,325.525574 597.077026,325.925812 599.211121,325.888153 
	C605.482361,325.777527 606.306091,326.233032 605.891235,332.475616 
	C604.813721,348.690399 603.418396,364.883881 602.201599,381.089752 
	C601.955688,384.364929 601.937256,387.657196 601.813965,390.941589 
	C601.807434,391.136475 601.800964,391.331360 601.547729,391.979980 
	C601.159790,393.276947 601.018616,394.120148 600.877380,394.963379 
	C598.579773,405.879547 595.528564,416.529663 589.601074,427.483429 
	C588.466614,425.087616 587.770264,423.555420 587.023132,422.048401 
	C576.087830,399.993225 558.649414,386.640411 534.039062,383.955597 
	C527.997375,383.296509 521.647766,385.610840 515.421143,386.414886 
	C513.218506,386.699341 510.741272,387.191437 508.763519,386.507263 
	C495.241180,381.829193 482.236908,382.938873 469.573090,389.339417 
	C454.493591,396.960815 442.967438,408.031677 436.228363,423.746124 
	C435.796600,424.752960 435.196228,425.687500 434.191315,427.551453 
	C425.858276,410.348053 422.956665,392.716431 421.154236,374.043823 
	C420.920258,370.502991 420.522430,367.760193 420.124634,365.017395 
M463.410736,363.222992 
	C471.477570,367.709229 480.073120,365.448242 483.262604,358.001068 
	C486.444794,350.571075 482.813538,342.361328 475.171692,339.708710 
	C469.453278,337.723724 463.608032,339.676117 460.249176,344.693054 
	C456.416718,350.417389 457.355621,357.047363 463.410736,363.222992 
M549.249207,339.323822 
	C547.766296,340.059509 546.151917,340.611694 544.824158,341.563721 
	C539.908752,345.088196 538.012512,351.599976 540.140442,357.121124 
	C542.259583,362.619598 548.397034,366.402405 554.012756,365.671234 
	C559.958862,364.897064 564.631836,360.232544 565.454041,354.123627 
	C566.544006,346.024902 559.226135,337.149231 549.249207,339.323822 
z"/>

<path fill="#111111" opacity="1.000000" stroke="none" 
	d="
M492.782532,419.271362 
	C489.189209,416.836121 485.969910,414.524872 482.750580,412.213593 
	C486.070831,410.211578 489.153931,407.359222 492.752625,406.355560 
	C507.887817,402.134308 523.061340,402.316406 537.858521,408.043518 
	C540.150391,408.930542 541.939209,411.117340 543.960632,412.703033 
	C542.016785,414.371521 540.333801,416.652649 538.086853,417.609161 
	C523.384583,423.868103 508.341187,423.999329 492.782532,419.271362 
z"/>
<path fill="#111111" opacity="1.000000" stroke="none" 
	d="
M269.057343,216.147919 
	C266.291840,211.301559 264.403198,205.937607 260.685547,202.628311 
	C257.039642,199.382889 251.533249,198.227539 246.462585,195.198303 
	C260.858307,193.377579 268.255493,184.832108 271.270264,170.905014 
	C274.805054,184.637161 282.358734,193.291595 297.478027,195.144012 
	C290.391815,198.889740 283.971008,200.751205 279.849731,204.898010 
	C275.817627,208.955093 274.129547,215.341766 271.027374,221.466431 
	C270.311798,219.601318 269.722595,218.065628 269.057343,216.147919 
z"/>
<path fill="#111111" opacity="1.000000" stroke="none" 
	d="
M221.454254,212.399277 
	C223.654526,214.409195 225.487076,216.383194 227.699387,217.736252 
	C229.704086,218.962341 232.122818,219.511459 234.758667,220.510529 
	C230.504913,222.960907 226.269989,224.454941 223.408539,227.320480 
	C220.665604,230.067322 219.348053,234.237518 216.873413,238.749847 
	C214.822769,229.335693 209.872391,223.261795 200.299988,221.110916 
	C208.906189,218.314743 214.965012,213.549118 216.492905,204.317368 
	C216.898712,204.364624 217.304504,204.411865 217.710312,204.459122 
	C218.890854,207.003708 220.071411,209.548309 221.454254,212.399277 
z"/>
<path fill="#111111" opacity="1.000000" stroke="none" 
	d="
M588.517151,325.234985 
	C583.784668,326.150635 578.639648,327.578644 573.432129,327.863190 
	C556.822388,328.770752 540.191040,329.714142 523.565002,329.770630 
	C506.939484,329.827057 490.304810,328.963623 473.684998,328.250427 
	C463.382843,327.808380 453.096741,326.948059 442.813873,326.141998 
	C441.053741,326.004059 439.346252,325.194855 437.332520,324.485657 
	C485.196838,328.767761 533.389954,328.840546 581.615112,325.796814 
	C583.772278,325.660675 585.922546,325.417358 588.517151,325.234985 
z"/>
<path fill="#111111" opacity="1.000000" stroke="none" 
	d="
M440.435059,693.951172 
	C445.474274,693.777710 450.931671,693.372131 456.350494,693.669617 
	C463.456726,694.059875 470.523163,695.437317 477.624054,695.591858 
	C485.024811,695.752869 492.446442,694.667786 499.858551,694.673340 
	C507.592957,694.679077 515.328857,695.671448 523.060486,695.625183 
	C533.328003,695.563599 543.590393,694.864685 553.858276,694.544189 
	C557.308044,694.436523 560.767761,694.648499 564.605652,694.843140 
	C538.041565,695.763794 511.096375,697.061768 484.147491,697.143494 
	C469.713623,697.187317 455.273438,695.137024 440.435059,693.951172 
z"/>
<path fill="#111111" opacity="1.000000" stroke="none" 
	d="
M601.903931,390.556335 
	C601.937256,387.657196 601.955688,384.364929 602.201599,381.089752 
	C603.418396,364.883881 604.813721,348.690399 605.891235,332.475616 
	C606.306091,326.233032 605.482361,325.777527 599.211121,325.888153 
	C597.077026,325.925812 594.935242,325.525574 592.417114,325.200897 
	C596.976685,324.569824 601.916016,324.063263 607.682922,323.471832 
	C607.926880,346.252045 606.591370,368.332336 601.903931,390.556335 
z"/>
<path fill="#111111" opacity="1.000000" stroke="none" 
	d="
M434.559143,324.054596 
	C432.516876,324.325623 430.054291,324.820465 427.628815,324.678955 
	C421.884125,324.343872 420.415802,325.246002 420.236908,331.053864 
	C420.048950,337.156708 420.479309,343.276245 420.524994,349.389374 
	C420.556915,353.659332 420.396088,357.930756 420.189209,362.587341 
	C419.542969,349.613068 419.028900,336.252930 418.484283,322.098663 
	C424.473907,322.821198 429.314789,323.405182 434.559143,324.054596 
z"/>
<path fill="#111111" opacity="1.000000" stroke="none" 
	d="
M567.435852,694.874451 
	C570.634338,693.907104 574.222107,692.729248 577.902344,692.060181 
	C586.540283,690.489868 595.215088,689.114868 603.892883,687.777527 
	C605.651611,687.506531 607.489685,687.749695 609.640625,687.869385 
	C595.949158,690.286987 581.908142,692.591064 567.435852,694.874451 
z"/>
<path fill="#111111" opacity="1.000000" stroke="none" 
	d="
M412.377075,689.084534 
	C420.831818,690.418640 429.646851,691.864929 438.725220,693.533203 
	C430.238159,692.235779 421.487793,690.716248 412.377075,689.084534 
z"/>
<path fill="#111111" opacity="1.000000" stroke="none" 
	d="
M490.483887,311.987793 
	C491.807007,311.614441 493.593506,311.028473 495.383057,311.019165 
	C509.343414,310.946503 523.304382,310.962646 537.264954,311.018250 
	C538.905273,311.024780 540.544006,311.436707 542.571899,311.788757 
	C525.623169,311.958649 508.285950,312.000519 490.483887,311.987793 
z"/>
</svg>